<svg width="24" height="24" viewBox="0 0 24 24" fill="none" xmlns="http://www.w3.org/2000/svg">
<path d="M8.76945 8.98006L9.09945 8.65006C9.38945 8.36006 9.38945 7.88006 9.09945 7.59006C8.80945 7.30006 8.32945 7.30006 8.03945 7.59006L6.46945 9.16006C6.17945 9.45006 6.17945 9.93006 6.46945 10.2201L8.03945 11.7901C8.18945 11.9401 8.37945 12.0101 8.56945 12.0101C8.75945 12.0101 8.94945 11.9401 9.09945 11.7901C9.38945 11.5001 9.38945 11.0201 9.09945 10.7301L8.83945 10.4701H13.9195C15.1995 10.4701 16.2495 11.5101 16.2495 12.8001C16.2495 14.0901 15.2095 15.1301 13.9195 15.1301H8.99945C8.58945 15.1301 8.24945 15.4701 8.24945 15.8801C8.24945 16.2901 8.58945 16.6301 8.99945 16.6301H13.9195C16.0295 16.6301 17.7495 14.9101 17.7495 12.8001C17.7495 10.6901 16.0295 8.98006 13.9195 8.98006H8.76945Z" fill="#6A707F"/>
</svg>
